<svg xmlns="http://www.w3.org/2000/svg" xmlns:xlink="http://www.w3.org/1999/xlink" width="36" height="27" viewBox="0 0 36 27"><defs><path id="a" d="M650.88 155.8c0-1 .8-1.8 1.8-1.8h32.52c1 0 1.8.8 1.8 1.8v23.4c0 1-.8 1.8-1.8 1.8h-32.52c-1 0-1.8-.8-1.8-1.8z"/><path id="b" d="M670.3 170.02c0-1-.78-1.2-1.48-1.2h-2.8l-1.1 1.2-1.08-1.2h-3.52v3.64h3.46l1.12-1.2 1.08 1.2h1.7v-1.22h1.1c.76 0 1.52-.2 1.52-1.22zm-4.83.63l1.34-1.44v2.92zm2.22-.16v-.91h1.13c.3 0 .53.12.53.44 0 .31-.21.47-.54.47zm7.04-1.67v3.64h2.9v-.75h-2.03v-.73h1.99v-.74h-2v-.66h2.05v-.76zm-1.1 1.95c.22-.09.61-.39.61-.97a.85.85 0 0 0-.45-.8 2.18 2.18 0 0 0-1.05-.18h-2.02v3.64h.88v-1.33h.93c.32 0 .52.04.64.17.17.16.15.49.15.7v.46h.87v-.72c0-.32-.02-.48-.14-.66a.95.95 0 0 0-.43-.3zm-.98-.39h-1.05v-.8h1.07c.15 0 .3 0 .41.06.12.06.18.17.18.33 0 .15-.06.27-.18.34-.11.07-.26.07-.43.07zm8.34.16c-.2-.2-.52-.28-1-.29l-.47-.01c-.15 0-.25-.01-.34-.04a.28.28 0 0 1-.2-.27c0-.12.04-.2.14-.27.09-.06.2-.06.35-.06h1.6v-.78h-1.75c-.92 0-1.25.56-1.25 1.09 0 1.15 1.03 1.1 1.84 1.12.16 0 .25.03.32.08.06.06.1.14.1.25 0 .1-.04.18-.1.23-.07.07-.2.1-.36.1h-1.7v.77h1.7c.9 0 1.38-.36 1.38-1.14 0-.38-.09-.6-.26-.78zm3.48 1.46v.94c-.35.17-.8.24-1.28.24h-2.27v-.33c-.26.21-.73.33-1.19.33h-7.15V172c0-.14-.01-.15-.16-.15h-.1v1.33h-2.36v-1.37c-.4.17-.84.18-1.22.18h-.28v1.2l-2.86-.01-.7-.8-.74.8h-4.63v-5.08h4.72l.67.78.73-.78h3.15c.37 0 .97.04 1.24.3v-.3h2.82c.27 0 .84.05 1.18.3v-.3h4.28v.3c.21-.2.66-.3 1.04-.3h2.4v.3c.25-.18.6-.3 1.1-.3h1.61v.72h-1.74c-.92 0-1.25.56-1.25 1.09 0 1.15 1.02 1.1 1.84 1.12.15 0 .25.03.31.08.06.06.1.14.1.25 0 .1-.04.18-.1.23-.07.07-.18.1-.35.1h-1.68v.77h1.69c.56 0 .97-.15 1.18-.46zm0-1.38l-.09-.09c-.19-.2-.5-.27-.98-.29h-.47a1 1 0 0 1-.33-.05.27.27 0 0 1-.2-.27c0-.11.04-.2.13-.26.1-.06.2-.06.35-.06h1.58z"/><path id="c" d="M653.34 166.91v-2.66l1.06-2.41h2.28l.3.6v-.6h2.67l.59 1.31.57-1.31h8.5c.38 0 .73.07.98.3v-.3h2.33v.3c.4-.22.9-.3 1.46-.3h3.37l.31.6v-.6h2.5l.34.6v-.6h2.43v5.07h-2.46l-.46-.76v.76h-3.07l-.33-.8h-.76l-.34.8h-1.59c-.62 0-1.1-.14-1.4-.3v.3h-3.78v-1.15c0-.16-.03-.17-.13-.17h-.14v1.32h-7.31v-.62l-.26.63h-1.53l-.26-.62v.61h-2.95l-.33-.8h-.76l-.33.8zm28.9-.71v-3.64h-.89v2.54l-1.54-2.54h-1.33V166l-1.48-3.44h-1.31l-1.24 2.86h-.39c-.23 0-.48-.04-.61-.18-.16-.19-.24-.47-.24-.86 0-.38.1-.67.25-.82.17-.17.36-.22.67-.22h.83v-.78h-.84c-.6 0-1.05.14-1.33.43-.38.39-.47.88-.47 1.42 0 .66.16 1.08.46 1.39.3.3.85.4 1.27.4h1.03l.33-.81h1.81l.35.81h1.78v-2.73l1.66 2.73zm-10.34 0v-3.64h-.9v3.64zm-1.41-2.66c0-.4-.17-.64-.45-.8-.28-.17-.6-.18-1.06-.18h-2v3.64h.87v-1.32h.94c.31 0 .5.02.63.15.16.18.14.5.14.71v.46h.89v-.71c0-.33-.02-.5-.15-.67a.966.966 0 0 0-.43-.3c.23-.1.62-.4.62-.98zm-4.13 2.66v-.75h-2.04v-.73h2v-.74h-2v-.66h2.04v-.76h-2.92v3.64zm-3.57 0v-3.64h-1.46l-1.05 2.47-1.15-2.47h-1.42v3.45l-1.5-3.45h-1.3l-1.56 3.64h.95l.34-.81h1.82l.34.81h1.78v-2.85l1.27 2.85h.77l1.27-2.85v2.85zm14.14-1.57h-1.21l.6-1.45zm-8.03-.5h-1.05v-.81h1.07a.9.9 0 0 1 .41.06c.11.06.18.17.18.33s-.06.28-.18.34c-.12.07-.26.08-.43.08zm-13.95.5l.6-1.45.6 1.45z"/></defs><use fill="#0072ce" xlink:href="#a" transform="translate(-651 -154)"/><use fill="#fff" xlink:href="#b" transform="translate(-651 -154)"/><use fill="#fff" xlink:href="#c" transform="translate(-651 -154)"/></svg>