<svg xmlns="http://www.w3.org/2000/svg" xmlns:xlink="http://www.w3.org/1999/xlink" width="37" height="27" viewBox="0 0 37 27"><defs><path id="a" d="M567.63 155.8c0-1 .8-1.8 1.8-1.8h32.52c1 0 1.8.8 1.8 1.8v23.4c0 1-.8 1.8-1.8 1.8h-32.52c-1 0-1.8-.8-1.8-1.8z"/><path id="b" d="M588.63 167.72a8.73 8.73 0 0 1-8.68 8.78 8.73 8.73 0 0 1-8.68-8.78 8.73 8.73 0 0 1 8.68-8.78c4.8 0 8.68 3.93 8.68 8.78"/><path id="c" d="M591.6 158.94a8.6 8.6 0 0 0-6.7 3.2h1.76c.24.3.46.6.66.93h-3.08c-.18.3-.35.61-.5.93h4.08c.14.3.26.61.36.93h-4.8c-.1.3-.2.62-.26.93h5.32a8.95 8.95 0 0 1-.26 4.65h-4.8c.1.32.22.63.36.93h4.08c-.15.32-.32.63-.5.93h-3.08c.2.33.42.64.66.93h1.76c-.27.33-.57.64-.88.93a8.6 8.6 0 0 0 5.83 2.27c4.79 0 8.68-3.93 8.68-8.78a8.73 8.73 0 0 0-8.68-8.78"/><path id="d" d="M578.6 170.3h-.78l.02-.38c-.24.3-.56.44-.99.44-.51 0-.86-.4-.86-1 0-.88.6-1.39 1.65-1.39l.39.03a.9.9 0 0 0 .04-.24c0-.24-.17-.33-.6-.33-.47 0-.85.11-1 .17l.12-.82c.47-.14.78-.19 1.13-.19.81 0 1.24.37 1.24 1.06 0 .19-.03.42-.08.72l-.28 1.92zm-.67-1.62l-.22-.02c-.54 0-.8.19-.8.56 0 .22.12.36.33.36.39 0 .67-.36.69-.9z"/><path id="e" d="M575.6 170.3h-.94l.54-3.43-1.2 3.42h-.65l-.08-3.4-.57 3.4h-.88l.74-4.45h1.35l.08 2.5.83-2.5h1.5l-.72 4.45"/><path id="f" d="M593.45 170.3h-.78l.02-.38c-.24.3-.56.44-.99.44-.51 0-.86-.4-.86-1 0-.88.6-1.39 1.65-1.39l.39.03a.9.9 0 0 0 .04-.24c0-.24-.17-.33-.6-.33-.47 0-.85.11-1 .17l.12-.82c.47-.14.78-.19 1.13-.19.81 0 1.24.37 1.24 1.06 0 .19-.03.42-.08.72l-.28 1.92zm-.67-1.62l-.22-.02c-.54 0-.8.19-.8.56 0 .22.12.36.33.36.39 0 .67-.36.69-.9z"/><path id="g" d="M582.8 170.24c-.27.08-.47.11-.68.11-.49 0-.75-.28-.75-.8 0-.15.07-.57.13-.96l.4-2.47h.94l-.1.55h.56l-.13.87h-.56c-.11.69-.27 1.55-.27 1.66 0 .19.1.27.32.27.11 0 .2-.01.26-.04l-.13.8"/><path id="h" d="M585.14 168.06c0-.07.1-.65-.44-.65-.3 0-.5.23-.6.65h1.04zm.53 2.15c-.33.1-.64.15-.96.15-1.05 0-1.6-.56-1.6-1.62 0-1.24.7-2.15 1.64-2.15.77 0 1.27.51 1.27 1.31 0 .27-.04.53-.12.9h-1.87c-.06.52.27.74.82.74.33 0 .64-.07.97-.23l-.15.9z"/><path id="i" d="M579.17 167.82c0 .45.22.77.71 1 .39.19.45.24.45.4 0 .23-.17.34-.55.34-.28 0-.54-.05-.84-.15l-.13.84c.21.05.4.09.98.1 1 0 1.45-.38 1.45-1.2 0-.5-.19-.8-.66-1.01-.4-.19-.44-.23-.44-.4 0-.2.16-.3.46-.3.19 0 .44.03.68.06l.13-.84a6.3 6.3 0 0 0-.83-.07c-1.05 0-1.42.56-1.41 1.23"/><path id="j" d="M590.25 166.68c.26 0 .5.07.84.24l.16-.96c-.14-.06-.63-.38-1.04-.38-.63 0-1.16.32-1.54.84-.54-.18-.77.19-1.04.56l-.25.05c.02-.12.04-.24.03-.36h-.87c-.11 1.12-.32 2.26-.49 3.38l-.04.24h.94c.16-1.03.25-1.7.3-2.14l.35-.2c.06-.2.22-.27.56-.26a4.1 4.1 0 0 0-.07.74c0 1.19.63 1.92 1.65 1.92.26 0 .48-.03.83-.13l.16-1.01c-.3.15-.56.23-.8.23-.54 0-.88-.41-.88-1.09 0-.98.5-1.67 1.2-1.67"/><path id="k" d="M597.05 169.46c-.32 0-.48-.24-.48-.72 0-.7.3-1.21.73-1.21.33 0 .5.25.5.7 0 .72-.3 1.23-.75 1.23zm1.18-3.62l-.2 1.29c-.26-.35-.54-.6-.9-.6-.48 0-.92.37-1.2.9-.4-.08-.8-.22-.8-.22l.04-.54h-.87c-.11 1.12-.32 2.26-.49 3.38l-.04.24h.94c.13-.83.23-1.53.3-2.08.32-.3.48-.55.8-.53-.14.35-.22.76-.22 1.17 0 .9.45 1.5 1.14 1.5.34 0 .6-.11.87-.4l-.05.34h.9l.71-4.45h-.93z"/><path id="l" d="M575.87 170.03h-.94l.54-3.42-1.2 3.42h-.65l-.08-3.4-.57 3.4h-.88l.74-4.45h1.35l.04 2.76.91-2.76h1.47l-.73 4.45"/><path id="m" d="M578.88 170.03h-.78l.02-.37c-.24.3-.56.44-.99.44-.51 0-.86-.4-.86-1 0-.88.6-1.39 1.65-1.39l.39.03a.9.9 0 0 0 .04-.24c0-.24-.17-.33-.6-.33-.47 0-.85.11-1 .17l.12-.82c.47-.14.78-.19 1.13-.19.81 0 1.24.37 1.24 1.06 0 .19-.03.42-.08.72l-.28 1.92zm-.67-1.62l-.22-.01c-.54 0-.8.19-.8.56 0 .22.12.37.33.37.39 0 .67-.38.69-.92z"/><path id="n" d="M591.52 165.7l-.16.96a1.78 1.78 0 0 0-.84-.24c-.7 0-1.2.69-1.2 1.67 0 .67.34 1.08.88 1.08.24 0 .5-.07.8-.23l-.16 1.02c-.35.1-.57.13-.83.13-1.02 0-1.65-.74-1.65-1.92 0-1.6.87-2.71 2.12-2.71.41 0 .9.18 1.04.23"/><path id="o" d="M593.72 170.03h-.78l.02-.37c-.24.3-.56.44-.99.44-.51 0-.86-.4-.86-1 0-.88.6-1.39 1.65-1.39l.39.03a.9.9 0 0 0 .03-.24c0-.24-.16-.33-.6-.33-.46 0-.84.11-1 .17l.13-.82c.47-.14.78-.19 1.13-.19.81 0 1.24.37 1.24 1.06 0 .19-.03.42-.08.72l-.28 1.92zm-.67-1.62l-.22-.01c-.54 0-.8.19-.8.56 0 .22.12.37.33.37.39 0 .67-.38.69-.92z"/><path id="p" d="M583.06 169.98c-.26.08-.46.11-.67.11-.49 0-.75-.28-.75-.8 0-.15.07-.57.13-.96l.4-2.47h.95l-.11.55h.48l-.13.87h-.48c-.11.69-.27 1.55-.27 1.66 0 .19.1.27.32.27.11 0 .2-.01.26-.04l-.13.8"/><path id="q" d="M585.4 167.8c.01-.08.1-.65-.43-.65-.3 0-.5.23-.6.65h1.04zm.54 2.15c-.33.1-.64.15-.96.15-1.05 0-1.6-.56-1.6-1.62 0-1.24.7-2.15 1.64-2.15.77 0 1.26.51 1.26 1.31 0 .27-.03.53-.11.9h-1.87c-.06.52.27.74.82.74.33 0 .64-.07.97-.23l-.15.9z"/><path id="r" d="M579.45 167.56c0 .45.22.77.71 1 .39.19.45.24.45.4 0 .23-.17.34-.55.34-.28 0-.54-.05-.84-.15l-.13.84c.21.05.4.09.98.1 1 0 1.45-.38 1.45-1.2 0-.5-.19-.8-.66-1.01-.4-.19-.44-.23-.44-.4 0-.2.16-.3.46-.3.19 0 .44.03.68.06l.13-.84a6.34 6.34 0 0 0-.83-.07c-1.05 0-1.42.56-1.41 1.23"/><path id="s" d="M597.32 169.2c.44 0 .75-.5.75-1.23 0-.46-.17-.7-.5-.7-.43 0-.73.5-.73 1.21 0 .48.16.72.48.72zm1.4.83h-.9l.05-.33c-.26.28-.53.4-.87.4-.69 0-1.14-.6-1.14-1.5 0-1.21.7-2.23 1.53-2.23.37 0 .65.15.9.5l.21-1.29h.93l-.72 4.45z"/><path id="t" d="M594.57 166.4c-.11 1.13-.32 2.27-.49 3.39l-.04.24h.94c.34-2.21.42-2.65.95-2.6.08-.45.24-.84.36-1.04-.4-.09-.62.14-.9.57.02-.19.06-.37.05-.55h-.87"/><path id="u" d="M586.81 166.4c-.11 1.13-.32 2.27-.49 3.39l-.04.24h.94c.34-2.21.42-2.65.95-2.6.08-.45.24-.84.36-1.04-.4-.09-.62.14-.9.57.02-.19.06-.37.05-.55h-.87"/></defs><use fill="#006" xlink:href="#a" transform="translate(-567 -154)"/><use fill="#c00" xlink:href="#b" transform="translate(-567 -154)"/><use fill="#f90" xlink:href="#c" transform="translate(-567 -154)"/><use fill="#006" xlink:href="#d" transform="translate(-567 -154)"/><use fill="#006" xlink:href="#e" transform="translate(-567 -154)"/><use fill="#006" xlink:href="#f" transform="translate(-567 -154)"/><use fill="#006" xlink:href="#g" transform="translate(-567 -154)"/><use fill="#006" xlink:href="#h" transform="translate(-567 -154)"/><use fill="#006" xlink:href="#i" transform="translate(-567 -154)"/><use fill="#006" xlink:href="#j" transform="translate(-567 -154)"/><use fill="#006" xlink:href="#k" transform="translate(-567 -154)"/><use fill="#fff" xlink:href="#l" transform="translate(-567 -154)"/><use fill="#fff" xlink:href="#m" transform="translate(-567 -154)"/><use fill="#fff" xlink:href="#n" transform="translate(-567 -154)"/><use fill="#fff" xlink:href="#o" transform="translate(-567 -154)"/><use fill="#fff" xlink:href="#p" transform="translate(-567 -154)"/><use fill="#fff" xlink:href="#q" transform="translate(-567 -154)"/><use fill="#fff" xlink:href="#r" transform="translate(-567 -154)"/><use fill="#fff" xlink:href="#s" transform="translate(-567 -154)"/><use fill="#fff" xlink:href="#t" transform="translate(-567 -154)"/><use fill="#fff" xlink:href="#u" transform="translate(-567 -154)"/></svg>