<svg xmlns="http://www.w3.org/2000/svg" xmlns:xlink="http://www.w3.org/1999/xlink" width="37" height="27" viewBox="0 0 37 27"><defs><path id="58xea" d="M609.25 155.8c0-1 .8-1.8 1.8-1.8h32.52c1 0 1.8.8 1.8 1.8v23.4c0 1-.8 1.8-1.8 1.8h-32.52c-1 0-1.8-.8-1.8-1.8z"/><path id="58xec" d="M620.14 181h25.23v-8.72s-8.91 6.02-25.23 8.72z"/><path id="58xed" d="M613.4 164.39h-1.41v4.46h1.4c.74 0 1.27-.16 1.74-.52.56-.42.9-1.05.9-1.7 0-1.33-1.09-2.24-2.64-2.24zm1.11 3.34c-.3.25-.69.35-1.3.35h-.26v-2.93h.25c.62 0 1 .1 1.31.35a1.44 1.44 0 0 1 0 2.23z"/><path id="58xee" d="M616.46 164.39h.95v4.46h-.95z"/><path id="58xef" d="M619.75 166.1c-.57-.2-.74-.33-.74-.57 0-.28.3-.49.72-.49.28 0 .52.1.77.36l.5-.6c-.42-.32-.9-.49-1.44-.49-.87 0-1.53.55-1.53 1.28 0 .61.3.92 1.2 1.22.38.12.57.2.66.26.2.1.29.27.29.46 0 .36-.32.62-.74.62-.46 0-.82-.2-1.04-.6l-.62.55c.44.59.97.85 1.7.85.99 0 1.69-.6 1.69-1.46 0-.71-.33-1.03-1.42-1.4"/><path id="58xeg" d="M621.46 166.62c0 1.31 1.13 2.33 2.59 2.33.4 0 .76-.07 1.2-.26v-1.03c-.4.35-.73.5-1.16.5-.96 0-1.64-.64-1.64-1.54 0-.86.7-1.54 1.6-1.54.45 0 .8.15 1.2.5v-1.02c-.43-.19-.77-.27-1.18-.27-1.45 0-2.61 1.04-2.61 2.33"/><path id="58xeh" d="M632.99 167.38l-1.3-2.99h-1.05l2.08 4.57h.5l2.13-4.57h-1.04l-1.32 3"/><path id="58xei" d="M635.78 168.85h2.7v-.76h-1.74v-1.2h1.68v-.76h-1.68v-.98h1.75v-.76h-2.71v4.46"/><path id="58xej" d="M642.27 165.7c0-.83-.63-1.31-1.73-1.31h-1.42v4.46h.96v-1.8h.12l1.32 1.8h1.18l-1.54-1.88c.72-.13 1.11-.58 1.11-1.26zm-1.92.74h-.27v-1.35h.29c.6 0 .92.23.92.66 0 .45-.32.69-.94.69z"/><path id="58xek" d="M630.77 166.62c0 1.29-1.15 2.33-2.56 2.33-1.4 0-2.55-1.04-2.55-2.33 0-1.28 1.14-2.32 2.55-2.32s2.56 1.04 2.56 2.32"/><clipPath id="58xeb"><use fill="#fff" xlink:href="#58xea"/></clipPath></defs><g><g transform="translate(-609 -154)"><g><g><use fill="#fff" xlink:href="#58xea"/><use fill="#fff" fill-opacity="0" stroke="#e6772f" stroke-miterlimit="50" stroke-width="1.8" clip-path="url(&quot;#58xeb&quot;)" xlink:href="#58xea"/></g><g><use fill="#e6772f" xlink:href="#58xec"/></g></g><g><use fill="#1a1919" xlink:href="#58xed"/></g><g><use fill="#1a1919" xlink:href="#58xee"/></g><g><use fill="#1a1919" xlink:href="#58xef"/></g><g><use fill="#1a1919" xlink:href="#58xeg"/></g><g><use fill="#1a1919" xlink:href="#58xeh"/></g><g><use fill="#1a1919" xlink:href="#58xei"/></g><g><use fill="#1a1919" xlink:href="#58xej"/></g><g><use fill="#e6772f" xlink:href="#58xek"/></g></g></g></svg>