<svg xmlns="http://www.w3.org/2000/svg" xmlns:xlink="http://www.w3.org/1999/xlink" width="36" height="27" viewBox="0 0 36 27"><defs><path id="qpcka" d="M525 155.8c0-1 .8-1.8 1.8-1.8h32.52c1 0 1.8.8 1.8 1.8v23.4c0 1-.8 1.8-1.8 1.8H526.8c-1 0-1.8-.8-1.8-1.8z"/><path id="qpckb" d="M538.31 171.8l1.39-8.59h2.22l-1.4 8.58h-2.21"/><path id="qpckc" d="M548.58 163.42a5.5 5.5 0 0 0-1.99-.36c-2.2 0-3.74 1.16-3.75 2.83-.02 1.24 1.1 1.92 1.94 2.33.87.42 1.16.7 1.15 1.07 0 .57-.69.84-1.32.84-.9 0-1.36-.13-2.1-.45l-.28-.14-.31 1.92c.52.24 1.48.45 2.47.46 2.33 0 3.85-1.15 3.87-2.93 0-.98-.59-1.72-1.87-2.33-.77-.4-1.25-.67-1.24-1.07 0-.36.4-.74 1.27-.74a3.9 3.9 0 0 1 1.66.33l.2.1.3-1.86"/><path id="qpckd" d="M554.27 163.22h-1.71c-.53 0-.93.15-1.16.71l-3.3 7.87h2.33l.47-1.3 2.84.01.27 1.29h2.06l-1.8-8.58zm-2.73 5.53l.88-2.4.3-.82.14.74.52 2.48h-1.84z"/><path id="qpcke" d="M536.45 163.22l-2.17 5.85-.24-1.19a6.6 6.6 0 0 0-3.07-3.6l1.99 7.5h2.35l3.49-8.56h-2.35"/><path id="qpckf" d="M532.27 163.21h-3.58l-.03.18c2.78.7 4.63 2.43 5.4 4.49l-.79-3.95c-.13-.54-.52-.7-1-.72"/></defs><g><g transform="translate(-525 -154)"><g><use fill="#26337a" xlink:href="#qpcka"/></g><g><use fill="#fffffe" xlink:href="#qpckb"/></g><g><use fill="#fffffe" xlink:href="#qpckc"/></g><g><use fill="#fffffe" xlink:href="#qpckd"/></g><g><use fill="#fffffe" xlink:href="#qpcke"/></g><g><use fill="#ec982d" xlink:href="#qpckf"/></g></g></g></svg>